<svg xmlns="http://www.w3.org/2000/svg" viewBox="0 0 24 24" fill="none" stroke="#ffffff" stroke-width="1.6" stroke-linecap="round" stroke-linejoin="round">
  <path d="M21.7 2.3A11.9 11.9 0 0 0 12 0C5.4 0 .1 5.3.1 11.9a11.6 11.6 0 0 0 2.2 6.7L0 24l5.6-1.5A12 12 0 0 0 12 24c6.6 0 12-5.4 12-12 0-3.2-1.3-6.2-3.3-8.4z"/>
  <path d="M17 14.6c-.3.9-1.6 1.7-2.2 1.8-.5.1-1.1.1-1.6-.1-.4-.1-1.5-.5-3-1.6-1.1-.8-1.9-1.8-2.2-2.1-.3-.3-.6-.6-.5-1 .1-.4.4-.7.8-.9.2-.1.4-.2.7-.1.2.1.5.2.8.4.3.2.6.3.8.5.2.2.3.4.5.6.2.2.4.4.6.3.2-.1.6-.3.9-.5.3-.2.7-.5 1-.7.3-.2.6-.3 1-.2.4.1.8.2 1.1.4.3.2.6.4.8.6.2.2.2.4.1.8z"/>
</svg>